<svg width="32" height="14" viewBox="0 0 32 14" fill="none" xmlns="http://www.w3.org/2000/svg">
<path d="M2.678 13.598C1.846 13.598 1.18733 13.2947 0.702 12.688C0.234 12.064 0 11.3187 0 10.452C0 8.92667 0.277333 7.34933 0.832 5.72C1.404 4.09067 2.14933 2.73 3.068 1.638C3.96933 0.546 4.94 0 5.98 0C6.72533 0 7.21067 0.268668 7.436 0.806002C7.488 0.892668 7.53133 0.988001 7.566 1.092C7.60067 1.17867 7.63533 1.26533 7.67 1.352C7.75667 1.59467 7.84333 1.73333 7.93 1.768C7.99933 1.94133 8.034 2.07133 8.034 2.158C8.034 2.314 7.956 2.46133 7.8 2.6C7.66133 2.73867 7.50533 2.808 7.332 2.808C6.968 2.808 6.734 2.53933 6.63 2.002C6.526 1.46467 6.24 1.196 5.772 1.196C5.148 1.196 4.48933 1.68133 3.796 2.652C3.10267 3.60533 2.50467 4.81867 2.002 6.292C1.51667 7.67867 1.274 8.918 1.274 10.01C1.274 11.5527 1.83733 12.324 2.964 12.324C3.536 12.324 4.06467 12.0553 4.55 11.518C4.602 11.4487 4.69733 11.336 4.836 11.18C4.97467 11.0067 5.10467 10.8853 5.226 10.816C5.34733 10.7293 5.46 10.686 5.564 10.686C5.89333 10.686 6.058 10.8333 6.058 11.128C6.058 11.4747 5.89333 11.8473 5.564 12.246C5.23467 12.6273 4.81 12.948 4.29 13.208C3.77 13.468 3.23267 13.598 2.678 13.598Z" fill="black"/>
<path d="M13.712 13.364C12.8107 13.364 12.1347 13.0087 11.684 12.298C11.2507 11.5873 11.034 10.738 11.034 9.75C11.034 8.17266 11.294 6.64733 11.814 5.174C12.3513 3.68333 13.0793 2.45267 13.998 1.482C14.882 0.493999 15.8787 0 16.988 0C18.5827 0 19.38 1.21333 19.38 3.64C19.38 4.85333 19.1807 6.09266 18.782 7.358C18.3833 8.62333 17.8633 9.75 17.222 10.738C16.598 11.726 15.948 12.4367 15.272 12.87C14.752 13.1993 14.232 13.364 13.712 13.364ZM13.92 12.194C14.4573 12.194 15.0553 11.726 15.714 10.79C16.39 9.854 16.9533 8.69267 17.404 7.306C17.872 5.91933 18.106 4.74067 18.106 3.77C18.106 2.76467 18.0453 2.14067 17.924 1.898C17.82 1.638 17.69 1.456 17.534 1.352C17.378 1.248 17.1353 1.196 16.806 1.196C16.442 1.196 16.0607 1.33467 15.662 1.612C14.8647 2.11467 14.1713 2.98133 13.582 4.212C12.6633 6.04933 12.204 7.83467 12.204 9.568C12.204 10.7467 12.542 11.5613 13.218 12.012C13.4607 12.1333 13.6947 12.194 13.92 12.194Z" fill="black"/>
<path d="M29.426 13.182C29.1487 13.182 28.9493 13.13 28.828 13.026C28.7067 12.922 28.6633 12.74 28.698 12.48L29.972 4.888C30.128 3.952 30.206 3.23267 30.206 2.73C30.206 1.898 29.972 1.482 29.504 1.482C28.932 1.482 28.1433 2.47867 27.138 4.472C26.15 6.448 25.1273 8.684 24.07 11.18L23.706 12.012C23.394 12.688 23.082 13.026 22.77 13.026C22.5967 13.026 22.484 12.9913 22.432 12.922C22.3973 12.8353 22.38 12.662 22.38 12.402C22.38 12.142 22.718 10.14 23.394 6.396C24.0873 2.652 24.486 0.684666 24.59 0.493999C24.694 0.286 24.7807 0.156 24.85 0.104C24.9367 0.0520002 25.0927 0.026001 25.318 0.026001C25.526 0.026001 25.6907 0.104001 25.812 0.26C25.9507 0.416 26.02 0.572001 26.02 0.728001C26.02 0.832001 25.9333 1.17 25.76 1.742C25.24 3.51 24.8327 5.226 24.538 6.89L24.278 8.424C24.5727 7.8 24.7893 7.31467 24.928 6.968C25.4133 5.84133 25.8553 4.85333 26.254 4.004C26.67 3.15467 27.1293 2.366 27.632 1.638C28.3947 0.546 29.1053 0 29.764 0C30.9253 0 31.506 0.936 31.506 2.808C31.506 3.20667 31.454 3.718 31.35 4.342C31.246 4.966 31.1333 5.60733 31.012 6.266C30.7693 7.53133 30.6133 8.398 30.544 8.866L30.362 10.062C30.206 11.1367 30.0673 11.9253 29.946 12.428C29.8247 12.9307 29.6513 13.182 29.426 13.182Z" fill="black"/>
</svg>
