<svg width="94" height="34" viewBox="0 0 94 34" fill="none" xmlns="http://www.w3.org/2000/svg">
<path d="M3.354 23.312C2.522 23.312 1.86333 23.0087 1.378 22.402C0.91 21.778 0.676 21.0327 0.676 20.166C0.676 18.6407 0.953333 17.0633 1.508 15.434C2.08 13.8047 2.82533 12.444 3.744 11.352C4.64533 10.26 5.616 9.714 6.656 9.714C7.40133 9.714 7.88667 9.98267 8.112 10.52C8.164 10.6067 8.20733 10.702 8.242 10.806C8.27667 10.8927 8.31133 10.9793 8.346 11.066C8.43267 11.3087 8.51933 11.4473 8.606 11.482C8.67533 11.6553 8.71 11.7853 8.71 11.872C8.71 12.028 8.632 12.1753 8.476 12.314C8.33733 12.4527 8.18133 12.522 8.008 12.522C7.644 12.522 7.41 12.2533 7.306 11.716C7.202 11.1787 6.916 10.91 6.448 10.91C5.824 10.91 5.16533 11.3953 4.472 12.366C3.77867 13.3193 3.18067 14.5327 2.678 16.006C2.19267 17.3927 1.95 18.632 1.95 19.724C1.95 21.2667 2.51333 22.038 3.64 22.038C4.212 22.038 4.74067 21.7693 5.226 21.232C5.278 21.1627 5.37333 21.05 5.512 20.894C5.65067 20.7207 5.78067 20.5993 5.902 20.53C6.02333 20.4433 6.136 20.4 6.24 20.4C6.56933 20.4 6.734 20.5473 6.734 20.842C6.734 21.1887 6.56933 21.5613 6.24 21.96C5.91067 22.3413 5.486 22.662 4.966 22.922C4.446 23.182 3.90867 23.312 3.354 23.312ZM12.167 23.234C11.2657 23.234 10.5897 22.8787 10.139 22.168C9.70565 21.4573 9.48898 20.608 9.48898 19.62C9.48898 18.0427 9.74898 16.5173 10.269 15.044C10.8063 13.5533 11.5343 12.3227 12.453 11.352C13.337 10.364 14.3337 9.87 15.443 9.87C17.0377 9.87 17.835 11.0833 17.835 13.51C17.835 14.7233 17.6357 15.9627 17.237 17.228C16.8383 18.4933 16.3183 19.62 15.677 20.608C15.053 21.596 14.403 22.3067 13.727 22.74C13.207 23.0693 12.687 23.234 12.167 23.234ZM12.375 22.064C12.9123 22.064 13.5103 21.596 14.169 20.66C14.845 19.724 15.4083 18.5627 15.859 17.176C16.327 15.7893 16.561 14.6107 16.561 13.64C16.561 12.6347 16.5003 12.0107 16.379 11.768C16.275 11.508 16.145 11.326 15.989 11.222C15.833 11.118 15.5903 11.066 15.261 11.066C14.897 11.066 14.5157 11.2047 14.117 11.482C13.3197 11.9847 12.6263 12.8513 12.037 14.082C11.1183 15.9193 10.659 17.7047 10.659 19.438C10.659 20.6167 10.997 21.4313 11.673 21.882C11.9157 22.0033 12.1497 22.064 12.375 22.064ZM26.6973 23.156C26.42 23.156 26.2207 23.104 26.0993 23C25.978 22.896 25.9347 22.714 25.9693 22.454L27.2433 14.862C27.3993 13.926 27.4773 13.2067 27.4773 12.704C27.4773 11.872 27.2433 11.456 26.7753 11.456C26.2033 11.456 25.4147 12.4527 24.4093 14.446C23.4213 16.422 22.3987 18.658 21.3413 21.154L20.9773 21.986C20.6653 22.662 20.3533 23 20.0413 23C19.868 23 19.7553 22.9653 19.7033 22.896C19.6687 22.8093 19.6513 22.636 19.6513 22.376C19.6513 22.116 19.9893 20.114 20.6653 16.37C21.3587 12.626 21.7573 10.6587 21.8613 10.468C21.9653 10.26 22.052 10.13 22.1213 10.078C22.208 10.026 22.364 10 22.5893 10C22.7973 10 22.962 10.078 23.0833 10.234C23.222 10.39 23.2913 10.546 23.2913 10.702C23.2913 10.806 23.2047 11.144 23.0313 11.716C22.5113 13.484 22.104 15.2 21.8093 16.864L21.5493 18.398C21.844 17.774 22.0607 17.2887 22.1993 16.942C22.6847 15.8153 23.1267 14.8273 23.5253 13.978C23.9413 13.1287 24.4007 12.34 24.9033 11.612C25.666 10.52 26.3767 9.974 27.0353 9.974C28.1967 9.974 28.7773 10.91 28.7773 12.782C28.7773 13.1807 28.7253 13.692 28.6213 14.316C28.5173 14.94 28.4047 15.5813 28.2833 16.24C28.0407 17.5053 27.8847 18.372 27.8153 18.84L27.6333 20.036C27.4773 21.1107 27.3387 21.8993 27.2173 22.402C27.096 22.9047 26.9227 23.156 26.6973 23.156ZM24.6248 33.686C24.0008 33.686 23.2988 33.5647 22.5188 33.322C21.7215 33.0793 21.0455 32.776 20.4908 32.412C19.9362 32.0653 19.6588 31.736 19.6588 31.424C19.6588 31.2507 19.7368 31.112 19.8928 31.008C20.0488 30.904 20.2742 30.8607 20.5688 30.878C21.5048 31.554 22.2242 31.9787 22.7268 32.152C23.2295 32.3427 23.8968 32.438 24.7288 32.438C26.2542 32.438 27.4935 31.97 28.4468 31.034C29.4002 30.1153 30.1542 28.8587 30.7088 27.264C31.0728 26.224 31.4455 24.5513 31.8268 22.246C32.2082 19.9233 32.6415 17.0807 33.1268 13.718L33.5168 11.144L31.0988 11.196C30.7522 11.1613 30.5788 11.0053 30.5788 10.728C30.5788 10.4853 30.6568 10.3207 30.8128 10.234C30.9862 10.13 31.2635 10.0693 31.6448 10.052C32.0435 10.0173 32.7542 10 33.7768 10C34.3142 7.83333 34.8255 6.11733 35.3108 4.852C35.8135 3.58667 36.4722 2.59867 37.2868 1.888C38.1015 1.16 39.1588 0.795999 40.4588 0.795999C41.8975 0.795999 42.6168 1.056 42.6168 1.576C42.6168 1.836 42.4435 2.08733 42.0968 2.33C41.6288 2.24333 40.9355 2.2 40.0168 2.2C38.8035 2.2 37.7548 2.928 36.8708 4.384C36.0042 5.82267 35.3975 7.69467 35.0508 10L38.3528 10.026C38.8382 10.026 39.0808 10.1907 39.0808 10.52C39.0808 10.936 38.6648 11.1613 37.8328 11.196H37.0268H34.7908C34.5655 12.444 34.1148 15.3213 33.4388 19.828L32.7108 24.534C32.1042 28.2433 30.8995 30.8347 29.0968 32.308C28.0048 33.2267 26.5142 33.686 24.6248 33.686ZM42.5596 23.26C42.0049 23.26 41.5716 23.1733 41.2596 23C40.9476 22.8093 40.6962 22.5233 40.5056 22.142C40.1416 21.466 39.9596 20.6513 39.9596 19.698C39.9596 18.034 40.2109 16.4567 40.7136 14.966C41.2162 13.458 41.9009 12.1927 42.7676 11.17C43.5996 10.1993 44.5096 9.714 45.4976 9.714C46.0176 9.714 46.4249 9.93067 46.7196 10.364C47.0316 10.78 47.1876 11.2913 47.1876 11.898C47.1876 12.9553 46.9102 13.874 46.3556 14.654C45.8182 15.434 45.0902 16.084 44.1716 16.604C43.3742 17.072 42.4036 17.54 41.2596 18.008L41.2076 19.88C41.2076 21.336 41.6496 22.064 42.5336 22.064C42.8976 22.064 43.2442 21.9947 43.5736 21.856C43.9202 21.7173 44.2929 21.5267 44.6916 21.284C45.1596 21.0067 45.4889 20.868 45.6796 20.868C45.9742 20.868 46.1216 21.024 46.1216 21.336C46.1216 21.5613 45.9049 21.83 45.4716 22.142C45.0556 22.454 44.5616 22.7227 43.9896 22.948C43.4176 23.156 42.9409 23.26 42.5596 23.26ZM41.4676 16.76C42.6289 16.292 43.5129 15.876 44.1196 15.512C44.7262 15.148 45.1856 14.6887 45.4976 14.134C45.8269 13.5793 45.9916 12.8513 45.9916 11.95C45.9916 11.274 45.7056 10.936 45.1336 10.936C44.6309 10.936 44.0416 11.3953 43.3656 12.314C42.6549 13.2327 42.0829 14.4373 41.6496 15.928C41.5282 16.344 41.4676 16.6213 41.4676 16.76ZM48.9353 23.416C48.6926 23.416 48.5713 23.26 48.5713 22.948L49.1693 19.854L50.2613 14.368C50.7466 11.9413 50.9893 10.728 50.9893 10.728C51.0586 10.3467 51.1539 10.0693 51.2753 9.896C51.3966 9.72267 51.5526 9.636 51.7433 9.636C51.9166 9.636 52.0466 9.67933 52.1333 9.766C52.2373 9.85267 52.2893 10.0087 52.2893 10.234C52.2893 10.6327 52.1679 11.2393 51.9253 12.054C51.8039 12.4527 51.7173 12.7907 51.6653 13.068C51.5959 13.3107 51.5179 13.588 51.4313 13.9C51.3446 14.1947 51.2493 14.5413 51.1453 14.94C51.6133 13.8827 52.0553 13.042 52.4713 12.418C52.8873 11.7767 53.4073 11.17 54.0312 10.598C54.6206 10.0953 55.2099 9.844 55.7993 9.844C56.2326 9.844 56.5966 9.93933 56.8913 10.13C57.1859 10.3033 57.3333 10.5113 57.3333 10.754C57.3333 10.9447 57.2639 11.1007 57.1253 11.222C56.9866 11.326 56.8133 11.378 56.6053 11.378C56.4493 11.378 56.3019 11.3433 56.1633 11.274C56.0593 11.1873 55.9206 11.144 55.7473 11.144C55.5219 11.144 55.1926 11.3 54.7593 11.612C53.9446 12.2013 53.2513 12.9813 52.6793 13.952C52.1246 14.9053 51.6826 15.876 51.3532 16.864C51.0413 17.8347 50.7033 19.0133 50.3393 20.4L50.1053 21.362C49.8453 22.7313 49.4553 23.416 48.9353 23.416ZM60.2314 23.26C59.6768 23.26 59.2434 23.1733 58.9314 23C58.6194 22.8093 58.3681 22.5233 58.1774 22.142C57.8134 21.466 57.6314 20.6513 57.6314 19.698C57.6314 18.034 57.8828 16.4567 58.3854 14.966C58.8881 13.458 59.5728 12.1927 60.4394 11.17C61.2714 10.1993 62.1814 9.714 63.1694 9.714C63.6894 9.714 64.0968 9.93067 64.3914 10.364C64.7034 10.78 64.8594 11.2913 64.8594 11.898C64.8594 12.9553 64.5821 13.874 64.0274 14.654C63.4901 15.434 62.7621 16.084 61.8434 16.604C61.0461 17.072 60.0754 17.54 58.9314 18.008L58.8794 19.88C58.8794 21.336 59.3214 22.064 60.2054 22.064C60.5694 22.064 60.9161 21.9947 61.2454 21.856C61.5921 21.7173 61.9648 21.5267 62.3634 21.284C62.8314 21.0067 63.1608 20.868 63.3514 20.868C63.6461 20.868 63.7934 21.024 63.7934 21.336C63.7934 21.5613 63.5768 21.83 63.1434 22.142C62.7274 22.454 62.2334 22.7227 61.6614 22.948C61.0894 23.156 60.6128 23.26 60.2314 23.26ZM59.1394 16.76C60.3008 16.292 61.1848 15.876 61.7914 15.512C62.3981 15.148 62.8574 14.6887 63.1694 14.134C63.4988 13.5793 63.6634 12.8513 63.6634 11.95C63.6634 11.274 63.3774 10.936 62.8054 10.936C62.3028 10.936 61.7134 11.3953 61.0374 12.314C60.3268 13.2327 59.7548 14.4373 59.3214 15.928C59.2001 16.344 59.1394 16.6213 59.1394 16.76ZM73.2891 23.156C73.0118 23.156 72.8125 23.104 72.6911 23C72.5698 22.896 72.5265 22.714 72.5611 22.454L73.8351 14.862C73.9911 13.926 74.0691 13.2067 74.0691 12.704C74.0691 11.872 73.8351 11.456 73.3671 11.456C72.7951 11.456 72.0065 12.4527 71.0011 14.446C70.0131 16.422 68.9905 18.658 67.9331 21.154L67.5691 21.986C67.2571 22.662 66.9451 23 66.6331 23C66.4598 23 66.3471 22.9653 66.2951 22.896C66.2605 22.8093 66.2431 22.636 66.2431 22.376C66.2431 22.116 66.5811 20.114 67.2571 16.37C67.9505 12.626 68.3491 10.6587 68.4531 10.468C68.5571 10.26 68.6438 10.13 68.7131 10.078C68.7998 10.026 68.9558 10 69.1811 10C69.3891 10 69.5538 10.078 69.6751 10.234C69.8138 10.39 69.8831 10.546 69.8831 10.702C69.8831 10.806 69.7965 11.144 69.6231 11.716C69.1031 13.484 68.6958 15.2 68.4011 16.864L68.1411 18.398C68.4358 17.774 68.6525 17.2887 68.7911 16.942C69.2765 15.8153 69.7185 14.8273 70.1171 13.978C70.5331 13.1287 70.9925 12.34 71.4951 11.612C72.2578 10.52 72.9685 9.974 73.6271 9.974C74.7885 9.974 75.3691 10.91 75.3691 12.782C75.3691 13.1807 75.3171 13.692 75.2131 14.316C75.1091 14.94 74.9965 15.5813 74.8751 16.24C74.6325 17.5053 74.4765 18.372 74.4071 18.84L74.2251 20.036C74.0691 21.1107 73.9305 21.8993 73.8091 22.402C73.6878 22.9047 73.5145 23.156 73.2891 23.156ZM80.1606 23.312C79.3286 23.312 78.67 23.0087 78.1846 22.402C77.7166 21.778 77.4826 21.0327 77.4826 20.166C77.4826 18.6407 77.76 17.0633 78.3146 15.434C78.8866 13.8047 79.632 12.444 80.5506 11.352C81.452 10.26 82.4226 9.714 83.4626 9.714C84.208 9.714 84.6933 9.98267 84.9186 10.52C84.9706 10.6067 85.014 10.702 85.0486 10.806C85.0833 10.8927 85.118 10.9793 85.1526 11.066C85.2393 11.3087 85.326 11.4473 85.4126 11.482C85.482 11.6553 85.5166 11.7853 85.5166 11.872C85.5166 12.028 85.4386 12.1753 85.2826 12.314C85.144 12.4527 84.988 12.522 84.8146 12.522C84.4506 12.522 84.2166 12.2533 84.1126 11.716C84.0086 11.1787 83.7226 10.91 83.2546 10.91C82.6306 10.91 81.972 11.3953 81.2786 12.366C80.5853 13.3193 79.9873 14.5327 79.4846 16.006C78.9993 17.3927 78.7566 18.632 78.7566 19.724C78.7566 21.2667 79.32 22.038 80.4466 22.038C81.0186 22.038 81.5473 21.7693 82.0326 21.232C82.0846 21.1627 82.18 21.05 82.3186 20.894C82.4573 20.7207 82.5873 20.5993 82.7086 20.53C82.83 20.4433 82.9426 20.4 83.0466 20.4C83.376 20.4 83.5406 20.5473 83.5406 20.842C83.5406 21.1887 83.376 21.5613 83.0466 21.96C82.7173 22.3413 82.2926 22.662 81.7726 22.922C81.2526 23.182 80.7153 23.312 80.1606 23.312ZM88.9736 23.26C88.419 23.26 87.9856 23.1733 87.6736 23C87.3616 22.8093 87.1103 22.5233 86.9196 22.142C86.5556 21.466 86.3736 20.6513 86.3736 19.698C86.3736 18.034 86.625 16.4567 87.1276 14.966C87.6303 13.458 88.315 12.1927 89.1816 11.17C90.0136 10.1993 90.9236 9.714 91.9116 9.714C92.4316 9.714 92.839 9.93067 93.1336 10.364C93.4456 10.78 93.6016 11.2913 93.6016 11.898C93.6016 12.9553 93.3243 13.874 92.7696 14.654C92.2323 15.434 91.5043 16.084 90.5856 16.604C89.7883 17.072 88.8176 17.54 87.6736 18.008L87.6216 19.88C87.6216 21.336 88.0636 22.064 88.9476 22.064C89.3116 22.064 89.6583 21.9947 89.9876 21.856C90.3343 21.7173 90.707 21.5267 91.1056 21.284C91.5736 21.0067 91.903 20.868 92.0936 20.868C92.3883 20.868 92.5356 21.024 92.5356 21.336C92.5356 21.5613 92.319 21.83 91.8856 22.142C91.4696 22.454 90.9756 22.7227 90.4036 22.948C89.8316 23.156 89.355 23.26 88.9736 23.26ZM87.8816 16.76C89.043 16.292 89.927 15.876 90.5336 15.512C91.1403 15.148 91.5996 14.6887 91.9116 14.134C92.241 13.5793 92.4056 12.8513 92.4056 11.95C92.4056 11.274 92.1196 10.936 91.5476 10.936C91.045 10.936 90.4556 11.3953 89.7796 12.314C89.069 13.2327 88.497 14.4373 88.0636 15.928C87.9423 16.344 87.8816 16.6213 87.8816 16.76Z" fill="black"/>
</svg>
