<svg width="5544" height="840" viewBox="0 0 5544 840" fill="none" xmlns="http://www.w3.org/2000/svg">
<circle cx="40" cy="800" r="40" fill="white"/>
<circle cx="3944" cy="800" r="40" fill="white"/>
<circle cx="2124" cy="40" r="40" fill="white"/>
<circle cx="1080" cy="800" r="40" fill="white"/>
<circle cx="4984" cy="800" r="40" fill="white"/>
<circle cx="3164" cy="40" r="40" fill="white"/>
<circle cx="3684" cy="40" r="40" fill="white"/>
<circle cx="560" cy="800" r="40" fill="white"/>
<circle cx="4464" cy="800" r="40" fill="white"/>
<circle cx="2644" cy="40" r="40" fill="white"/>
<circle cx="1600" cy="800" r="40" fill="white"/>
<circle cx="5504" cy="800" r="40" fill="white"/>
<circle cx="1860" cy="300" r="40" transform="rotate(-90 1860 300)" fill="white"/>
<circle cx="3684" cy="300" r="40" transform="rotate(-90 3684 300)" fill="white"/>
<circle cx="300" cy="800" r="40" fill="white"/>
<circle cx="4204" cy="800" r="40" fill="white"/>
<circle cx="2384" cy="40" r="40" fill="white"/>
<circle cx="1860" cy="560" r="40" transform="rotate(-90 1860 560)" fill="white"/>
<circle cx="1340" cy="800" r="40" fill="white"/>
<circle cx="5244" cy="800" r="40" fill="white"/>
<circle cx="3684" cy="560" r="40" transform="rotate(-90 3684 560)" fill="white"/>
<circle cx="820" cy="800" r="40" fill="white"/>
<circle cx="4724" cy="800" r="40" fill="white"/>
<circle cx="1860" cy="800" r="40" fill="white"/>
<circle cx="2904" cy="40" r="40" fill="white"/>
<circle cx="3424" cy="40" r="40" fill="white"/>
<circle cx="3684" cy="800" r="40" fill="white"/>
<circle cx="1860" cy="40" r="40" transform="rotate(-90 1860 40)" fill="white"/>
</svg>
