<svg width="23" height="33" viewBox="0 0 23 33" fill="none" xmlns="http://www.w3.org/2000/svg">
<path d="M4.966 32.89C4.342 32.89 3.64 32.7687 2.86 32.526C2.06267 32.2833 1.38667 31.98 0.832001 31.616C0.277334 31.2693 0 30.94 0 30.628C0 30.4547 0.0780001 30.316 0.234 30.212C0.39 30.108 0.615333 30.0647 0.91 30.082C1.846 30.758 2.56533 31.1827 3.068 31.356C3.57067 31.5467 4.238 31.642 5.07 31.642C6.59533 31.642 7.83467 31.174 8.788 30.238C9.74133 29.3193 10.4953 28.0627 11.05 26.468C11.414 25.428 11.7867 23.7553 12.168 21.45C12.5493 19.1273 12.9827 16.2847 13.468 12.922L13.858 10.348L11.44 10.4C11.0933 10.3653 10.92 10.2093 10.92 9.932C10.92 9.68933 10.998 9.52467 11.154 9.438C11.3273 9.334 11.6047 9.27333 11.986 9.256C12.3847 9.22133 13.0953 9.204 14.118 9.204C14.6553 7.03733 15.1667 5.32133 15.652 4.056C16.1547 2.79067 16.8133 1.80267 17.628 1.092C18.4427 0.363999 19.5 0 20.8 0C22.2387 0 22.958 0.259999 22.958 0.779999C22.958 1.04 22.7847 1.29133 22.438 1.534C21.97 1.44733 21.2767 1.404 20.358 1.404C19.1447 1.404 18.096 2.132 17.212 3.588C16.3453 5.02667 15.7387 6.89867 15.392 9.204L18.694 9.23C19.1793 9.23 19.422 9.39467 19.422 9.724C19.422 10.14 19.006 10.3653 18.174 10.4H17.368H15.132C14.9067 11.648 14.456 14.5253 13.78 19.032L13.052 23.738C12.4453 27.4473 11.2407 30.0387 9.438 31.512C8.346 32.4307 6.85533 32.89 4.966 32.89Z" fill="black"/>
</svg>
