<svg width="60" height="37" viewBox="0 0 60 37" fill="none" xmlns="http://www.w3.org/2000/svg">
<path d="M9.63398 36.648C9.35665 36.648 9.20065 36.466 9.16598 36.102C9.70331 32.7913 10.1626 30.3386 10.544 28.744C10.9426 27.1666 11.4626 25.338 12.104 23.258C10.5266 24.6793 8.46398 25.39 5.91598 25.39C4.66798 25.39 3.60198 25.026 2.71798 24.298C1.85131 23.57 1.19265 22.6253 0.741979 21.464C0.291312 20.3026 0.065979 19.0633 0.065979 17.746C0.065979 15.25 0.577312 12.6153 1.59998 9.84198C2.63998 7.06865 3.95731 4.75465 5.55198 2.89998C7.16398 1.04531 8.76731 0.117981 10.362 0.117981C11.8006 0.117981 12.9533 0.551313 13.82 1.41798C14.704 2.26731 15.276 3.45465 15.536 4.97998C15.4666 5.49998 15.328 5.75998 15.12 5.75998C14.9466 5.75998 14.73 5.56931 14.47 5.18798C14.2273 4.80665 13.9846 4.33865 13.742 3.78398C13.066 2.15465 11.9393 1.33998 10.362 1.33998C8.80198 1.33998 7.31998 2.23265 5.91598 4.01798C4.51198 5.78598 3.38531 7.93531 2.53598 10.466C1.68665 12.9793 1.26198 15.224 1.26198 17.2C1.26198 19.2626 1.64331 20.9526 2.40598 22.27C3.16865 23.57 4.39931 24.22 6.09798 24.22C9.09665 24.22 11.142 23.388 12.234 21.724C12.5113 21.308 12.702 20.918 12.806 20.554C12.91 20.19 12.962 19.8086 12.962 19.41C12.8753 19.1673 12.4593 18.6646 11.714 17.902C10.9686 17.1393 10.2753 16.5326 9.63398 16.082C8.52465 16.3073 7.25931 16.5153 5.83798 16.706C5.49131 16.6713 5.31798 16.5153 5.31798 16.238C5.31798 16.0126 5.42198 15.8133 5.62998 15.64C6.75665 14.8253 7.73598 14.418 8.56798 14.418C9.07065 14.418 9.55598 14.548 10.024 14.808C12.1386 14.34 14.496 13.69 17.096 12.858C17.512 12.858 17.72 13.0053 17.72 13.3C17.72 13.404 17.6853 13.534 17.616 13.69C15.38 17.382 13.6986 21.36 12.572 25.624C12.208 26.976 11.922 28.146 11.714 29.134C11.506 30.1393 11.2373 31.4653 10.908 33.112L10.362 35.92C10.3446 36.1106 10.2493 36.2753 10.076 36.414C9.91998 36.57 9.77265 36.648 9.63398 36.648ZM13.846 18.526C14.1233 17.9193 14.4873 17.1566 14.938 16.238C15.406 15.3193 15.7266 14.7126 15.9 14.418C14.34 14.938 12.7973 15.38 11.272 15.744C11.6706 16.1253 12.13 16.602 12.65 17.174C13.17 17.746 13.5686 18.1966 13.846 18.526Z" fill="black"/>
<path d="M29.534 24.662C29.1353 24.662 28.7626 24.454 28.416 24.038C28.0866 23.6046 27.922 23.1453 27.922 22.66C27.922 21.5853 28.208 19.7653 28.78 17.2C28.3466 18.136 27.7833 19.098 27.09 20.086C26.414 21.0566 25.7466 21.9146 25.088 22.66C24.4293 23.4053 23.944 23.8906 23.632 24.116C23.1986 24.4453 22.722 24.61 22.202 24.61C21.214 24.61 20.72 23.986 20.72 22.738C20.72 21.5246 21.1793 20.0166 22.098 18.214C23.0166 16.394 24.1086 14.8166 25.374 13.482C26.6393 12.1646 27.662 11.506 28.442 11.506C29.2393 11.506 29.69 11.8526 29.794 12.546C29.846 12.754 29.872 12.9793 29.872 13.222C29.9586 13.17 30.054 13.144 30.158 13.144C30.5566 13.144 30.756 13.3346 30.756 13.716V13.82L30.444 14.964C30.2013 15.8306 29.95 17.1133 29.69 18.812C29.43 20.5106 29.3 21.9233 29.3 23.05L29.56 23.206C29.976 23.466 30.184 23.726 30.184 23.986C30.184 24.1593 30.1233 24.3153 30.002 24.454C29.8806 24.5926 29.7246 24.662 29.534 24.662ZM22.41 23.258C22.6006 23.258 22.7566 23.1973 22.878 23.076C24.646 21.568 26.2146 19.4793 27.584 16.81C28.1733 15.7006 28.5373 14.9726 28.676 14.626C28.832 14.2793 28.91 13.9413 28.91 13.612C28.91 13.4386 28.8666 13.2826 28.78 13.144C28.6933 13.0053 28.5806 12.936 28.442 12.936C28.2686 12.936 28.0433 13.014 27.766 13.17C27.0726 13.534 26.2493 14.3053 25.296 15.484C24.36 16.6626 23.5886 17.9106 22.982 19.228C22.3406 20.5626 22.02 21.75 22.02 22.79C22.02 23.102 22.15 23.258 22.41 23.258Z" fill="black"/>
<path d="M34.38 25.26C34.2066 25.26 34.0593 25.2253 33.938 25.156C33.8166 25.0866 33.756 25 33.756 24.896C33.912 24.4106 34.0333 23.908 34.12 23.388C34.2413 22.7466 34.38 22.2093 34.536 21.776C35.212 19.1066 35.8013 16.0646 36.304 12.65L36.382 12.208C36.382 12.0866 36.5033 11.8873 36.746 11.61C36.902 11.5406 37.032 11.506 37.136 11.506C37.3613 11.506 37.5173 11.6533 37.604 11.948V12.156C37.5866 13.3 37.396 14.6433 37.032 16.186L36.382 18.916L37.006 17.564C37.9073 15.4493 38.774 13.924 39.606 12.988C40.386 12.104 41.2526 11.662 42.206 11.662C42.7086 11.662 43.1246 11.87 43.454 12.286C43.8006 12.702 43.974 13.196 43.974 13.768V13.976C43.9566 14.028 43.948 14.0973 43.948 14.184C44.884 13.04 45.8633 12.26 46.886 11.844C47.2153 11.7053 47.536 11.636 47.848 11.636C48.1773 11.636 48.4806 11.792 48.758 12.104C49.0353 12.416 49.174 12.8146 49.174 13.3C49.174 14.2533 48.9833 15.3886 48.602 16.706C48.3593 17.5033 48.1686 18.1013 48.03 18.5C47.198 20.9613 46.7386 22.6253 46.652 23.492C46.6346 23.648 46.6086 23.8473 46.574 24.09C46.5393 24.3153 46.5133 24.454 46.496 24.506C46.3573 24.922 46.1233 25.13 45.794 25.13C45.3953 25.13 45.196 24.7053 45.196 23.856C45.196 23.336 45.2913 22.764 45.482 22.14C45.638 21.672 45.8026 21.1433 45.976 20.554C46.028 20.346 46.1926 19.8433 46.47 19.046C46.8686 17.9193 47.1806 16.966 47.406 16.186C47.6313 15.406 47.7873 14.548 47.874 13.612C47.874 13.2826 47.8306 13.0833 47.744 13.014C47.6746 12.9273 47.5186 12.884 47.276 12.884C47.016 12.884 46.652 13.04 46.184 13.352C45.7333 13.664 45.2826 14.08 44.832 14.6C43.792 15.7786 42.9946 17.304 42.44 19.176C42.2666 19.8173 42.1193 20.2766 41.998 20.554C41.426 22.2873 41.0706 23.414 40.932 23.934C40.7933 24.4886 40.6806 24.818 40.594 24.922C40.49 25.0607 40.334 25.13 40.126 25.13C39.7273 25.13 39.5106 24.9133 39.476 24.48C39.6493 23.2666 39.892 22.192 40.204 21.256C40.516 20.32 40.906 19.2713 41.374 18.11C41.6686 17.3473 41.92 16.5846 42.128 15.822C42.3533 15.042 42.466 14.3833 42.466 13.846C42.466 13.2566 42.284 12.962 41.92 12.962C41.3133 12.962 40.62 13.534 39.84 14.678C39.06 15.8046 38.3406 17.0613 37.682 18.448C37.0233 19.8173 36.5986 20.788 36.408 21.36C36.2866 21.6893 36.1913 21.958 36.122 22.166C36.0526 22.3566 36.0006 22.5126 35.966 22.634C35.4113 24.3846 34.8826 25.26 34.38 25.26Z" fill="black"/>
<path d="M54.774 25.052C54.2193 25.052 53.786 24.9653 53.474 24.792C53.162 24.6013 52.9106 24.3153 52.72 23.934C52.356 23.258 52.174 22.4433 52.174 21.49C52.174 19.826 52.4253 18.2486 52.928 16.758C53.4306 15.25 54.1153 13.9846 54.982 12.962C55.814 11.9913 56.724 11.506 57.712 11.506C58.232 11.506 58.6393 11.7226 58.934 12.156C59.246 12.572 59.402 13.0833 59.402 13.69C59.402 14.7473 59.1246 15.666 58.57 16.446C58.0326 17.226 57.3046 17.876 56.386 18.396C55.5886 18.864 54.618 19.332 53.474 19.8L53.422 21.672C53.422 23.128 53.864 23.856 54.748 23.856C55.112 23.856 55.4586 23.7866 55.788 23.648C56.1346 23.5093 56.5073 23.3186 56.906 23.076C57.374 22.7986 57.7033 22.66 57.894 22.66C58.1886 22.66 58.336 22.816 58.336 23.128C58.336 23.3533 58.1193 23.622 57.686 23.934C57.27 24.246 56.776 24.5147 56.204 24.74C55.632 24.948 55.1553 25.052 54.774 25.052ZM53.682 18.552C54.8433 18.084 55.7273 17.668 56.334 17.304C56.9406 16.94 57.4 16.4806 57.712 15.926C58.0413 15.3713 58.206 14.6433 58.206 13.742C58.206 13.066 57.92 12.728 57.348 12.728C56.8453 12.728 56.256 13.1873 55.58 14.106C54.8693 15.0246 54.2973 16.2293 53.864 17.72C53.7426 18.136 53.682 18.4133 53.682 18.552Z" fill="black"/>
</svg>
