<svg width="109" height="22" viewBox="0 0 109 22" fill="none" xmlns="http://www.w3.org/2000/svg">
<path d="M20.1094 0H21.0234V21.0234H20.1094V0ZM0 0H0.914062V21.0234H0V0ZM18.2812 0H19.1953V21.0234H18.2812V0ZM16.4531 0H17.3672V21.0234H16.4531V0ZM14.625 0H15.5391V21.0234H14.625V12.7842H6.39844V21.0234H5.48438V0H6.39844V8.21387H14.625V0ZM3.65625 0H4.57031V21.0234H3.65625V0ZM1.82812 0H2.74219V21.0234H1.82812V0ZM14.625 11.8701V10.9561H6.39844V11.8701H14.625ZM14.625 10.042V9.12793H6.39844V10.042H14.625Z" fill="black"/>
<path d="M31.793 10.4482L31.3359 11.4512L25.8516 0H26.7656L31.793 10.4482ZM32.707 8.44238L32.2373 9.44531L27.6797 0H28.5938L32.707 8.44238ZM33.6211 6.44922L33.1641 7.45215L29.5078 0H30.4219L33.6211 6.44922ZM32.4658 13.9395L39.0801 0H39.9941L33.3799 13.9395V21.0234H32.4658V13.9395ZM34.2939 13.9395L40.9082 0H41.8223L35.208 13.9395V21.0234H34.2939V13.9395ZM36.1221 13.9395L42.7363 0H43.6504L37.0361 13.9395V21.0234H36.1221V13.9395ZM31.0947 12.9746L37.252 0H38.166L31.5518 13.9395V21.0234H30.6377V13.9395L24.0234 0H24.9375L31.0947 12.9746Z" fill="black"/>
<path d="M53.7598 11.0703H59.0664C59.9382 11.0703 60.6745 10.7783 61.2754 10.1943C61.8848 9.60189 62.1895 8.76823 62.1895 7.69336C62.1895 6.88932 61.8721 6.16992 61.2373 5.53516C60.6025 4.89193 59.8789 4.57031 59.0664 4.57031H51.2207V21.0234H50.3066V3.65625H59.0664C60.1328 3.65625 61.0723 4.06673 61.8848 4.8877C62.6973 5.70866 63.1035 6.64388 63.1035 7.69336C63.1035 8.98828 62.71 10.0293 61.9229 10.8164C61.1357 11.5951 60.1836 11.9844 59.0664 11.9844H53.7598V11.0703ZM53.7598 12.8984H59.0664C59.9466 12.8984 60.7591 12.6868 61.5039 12.2637C62.2572 11.832 62.8623 11.2142 63.3193 10.4102C63.7848 9.60612 64.0176 8.70052 64.0176 7.69336C64.0176 6.38997 63.5182 5.23893 62.5195 4.24023C61.5293 3.24154 60.3783 2.74219 59.0664 2.74219H49.3926V21.0234H48.4785V1.82812H59.0664C60.0905 1.82812 61.0553 2.09896 61.9609 2.64062C62.8665 3.18229 63.5859 3.90592 64.1191 4.81152C64.6608 5.71712 64.9316 6.67773 64.9316 7.69336C64.9316 8.8444 64.6608 9.89388 64.1191 10.8418C63.5775 11.7812 62.8581 12.5133 61.9609 13.0381C61.0723 13.5544 60.1074 13.8125 59.0664 13.8125H53.7598V12.8984ZM53.7598 14.7266H59.0664C59.972 14.7266 60.8395 14.5488 61.6689 14.1934C62.4984 13.8294 63.2178 13.3428 63.8271 12.7334C64.445 12.1156 64.9359 11.3708 65.2998 10.499C65.6637 9.61882 65.8457 8.68359 65.8457 7.69336C65.8457 6.50846 65.5368 5.39551 64.9189 4.35449C64.3011 3.30501 63.4674 2.47135 62.418 1.85352C61.377 1.22721 60.2598 0.914062 59.0664 0.914062H47.5645V21.0234H46.6504V0H59.0664C60.4206 0 61.6901 0.355469 62.875 1.06641C64.0599 1.76888 65.0036 2.71257 65.7061 3.89746C66.4085 5.08236 66.7598 6.34766 66.7598 7.69336C66.7598 8.89518 66.5524 10.0039 66.1377 11.0195C65.723 12.0267 65.1644 12.8646 64.4619 13.5332C63.7594 14.2018 62.9427 14.7223 62.0117 15.0947C61.0807 15.4587 60.099 15.6406 59.0664 15.6406H53.7598V14.7266ZM53.0488 21.0234H52.1348V5.48438H59.0664C59.6673 5.48438 60.1836 5.70443 60.6152 6.14453C61.0553 6.58464 61.2754 7.10091 61.2754 7.69336C61.2754 9.33529 60.5391 10.1562 59.0664 10.1562H53.7598V9.24219H59.0664C59.4727 9.24219 59.79 9.12793 60.0186 8.89941C60.2471 8.6709 60.3613 8.26888 60.3613 7.69336C60.3613 7.32096 60.2344 7.01204 59.9805 6.7666C59.735 6.52116 59.4303 6.39844 59.0664 6.39844H53.0488V21.0234Z" fill="black"/>
<path d="M74.3301 21.0234H73.416V0H74.3301V21.0234ZM72.502 21.0234H71.5879V0H72.502V21.0234ZM70.6738 21.0234H69.7598V0H70.6738V21.0234ZM76.1582 16.4531H85.8828V17.3672H76.1582V18.2812H85.8828V19.1953H76.1582V20.1094H85.8828V21.0234H75.2441V0H85.8828V0.914062H76.1582V1.82812H85.8828V2.74219H76.1582V3.65625H85.8828V4.57031H76.1582V8.22656H81.1475V9.14062H76.1582V10.0547H81.1475V10.9688H76.1582V11.8828H81.1475V12.7969H76.1582V16.4531Z" fill="black"/>
<path d="M95.7891 10.5625H101.299C102.137 10.5625 102.843 10.2917 103.419 9.75C104.003 9.20833 104.295 8.43815 104.295 7.43945C104.295 6.70312 103.99 6.04297 103.381 5.45898C102.771 4.86654 102.077 4.57031 101.299 4.57031H93.4531V21.0234H92.5391V3.65625H101.299C102.331 3.65625 103.241 4.04134 104.028 4.81152C104.815 5.57324 105.209 6.44922 105.209 7.43945C105.209 8.6582 104.828 9.63574 104.066 10.3721C103.305 11.1084 102.382 11.4766 101.299 11.4766H95.7891V10.5625ZM95.7891 12.3906H101.299C102.619 12.3906 103.753 11.9294 104.701 11.0068C105.649 10.0758 106.123 8.88672 106.123 7.43945C106.123 6.19531 105.636 5.10352 104.663 4.16406C103.698 3.21615 102.577 2.74219 101.299 2.74219H91.625V21.0234H90.7109V1.82812H101.299C102.306 1.82812 103.25 2.08626 104.13 2.60254C105.019 3.11882 105.725 3.81283 106.25 4.68457C106.775 5.54785 107.037 6.46615 107.037 7.43945C107.037 9.10677 106.47 10.5033 105.336 11.6289C104.21 12.7461 102.865 13.3047 101.299 13.3047H95.7891V12.3906ZM95.7891 14.2188H101.299C102.484 14.2188 103.584 13.9268 104.6 13.3428C105.615 12.7588 106.428 11.9463 107.037 10.9053C107.646 9.85579 107.951 8.70052 107.951 7.43945C107.951 6.29688 107.646 5.22624 107.037 4.22754C106.436 3.22038 105.624 2.41634 104.6 1.81543C103.576 1.21452 102.475 0.914062 101.299 0.914062H89.7969V21.0234H88.8828V0H101.299C102.628 0 103.876 0.342773 105.044 1.02832C106.212 1.7054 107.139 2.61947 107.824 3.77051C108.518 4.91309 108.865 6.13607 108.865 7.43945C108.865 8.94596 108.539 10.2705 107.888 11.4131C107.244 12.5557 106.368 13.4486 105.26 14.0918L107.621 21.0234H106.656L104.396 14.5234C104.058 14.6589 103.8 14.752 103.622 14.8027L105.742 21.0234H104.777L102.708 15.0186C102.632 15.0355 102.361 15.0651 101.896 15.1074L103.863 21.0234H102.898L100.956 15.1328H100.131L101.984 21.0234H101.02L99.1533 15.1328H95.7891V14.2188ZM95.2812 21.0234H94.3672V5.48438H101.299C101.866 5.48438 102.353 5.67904 102.759 6.06836C103.174 6.44922 103.381 6.90625 103.381 7.43945C103.381 8.91211 102.687 9.64844 101.299 9.64844H95.7891V8.73438H101.299C101.663 8.73438 101.946 8.64128 102.149 8.45508C102.361 8.26042 102.467 7.92188 102.467 7.43945C102.467 7.14323 102.353 6.89779 102.124 6.70312C101.904 6.5 101.629 6.39844 101.299 6.39844H95.2812V21.0234Z" fill="black"/>
</svg>
