<svg width="105" height="22" viewBox="0 0 105 22" fill="none" xmlns="http://www.w3.org/2000/svg">
<path d="M20.29 0.976562H21.2041V22H20.29V0.976562ZM0.180664 0.976562H1.09473V22H0.180664V0.976562ZM18.4619 0.976562H19.376V22H18.4619V0.976562ZM16.6338 0.976562H17.5479V22H16.6338V0.976562ZM14.8057 0.976562H15.7197V22H14.8057V13.7607H6.5791V22H5.66504V0.976562H6.5791V9.19043H14.8057V0.976562ZM3.83691 0.976562H4.75098V22H3.83691V0.976562ZM2.00879 0.976562H2.92285V22H2.00879V0.976562ZM14.8057 12.8467V11.9326H6.5791V12.8467H14.8057ZM14.8057 11.0186V10.1045H6.5791V11.0186H14.8057ZM30.6494 11.4248L30.1924 12.4277L24.708 0.976562H25.6221L30.6494 11.4248ZM31.5635 9.41895L31.0938 10.4219L26.5361 0.976562H27.4502L31.5635 9.41895ZM32.4775 7.42578L32.0205 8.42871L28.3643 0.976562H29.2783L32.4775 7.42578ZM31.3223 14.916L37.9365 0.976562H38.8506L32.2363 14.916V22H31.3223V14.916ZM33.1504 14.916L39.7646 0.976562H40.6787L34.0645 14.916V22H33.1504V14.916ZM34.9785 14.916L41.5928 0.976562H42.5068L35.8926 14.916V22H34.9785V14.916ZM29.9512 13.9512L36.1084 0.976562H37.0225L30.4082 14.916V22H29.4941V14.916L22.8799 0.976562H23.7939L29.9512 13.9512ZM51.2412 12.0469H56.5479C57.4196 12.0469 58.1559 11.7549 58.7568 11.1709C59.3662 10.5785 59.6709 9.74479 59.6709 8.66992C59.6709 7.86589 59.3535 7.14648 58.7188 6.51172C58.084 5.86849 57.3604 5.54688 56.5479 5.54688H48.7021V22H47.7881V4.63281H56.5479C57.6143 4.63281 58.5537 5.04329 59.3662 5.86426C60.1787 6.68522 60.585 7.62044 60.585 8.66992C60.585 9.96484 60.1914 11.0059 59.4043 11.793C58.6172 12.5716 57.665 12.9609 56.5479 12.9609H51.2412V12.0469ZM51.2412 13.875H56.5479C57.4281 13.875 58.2406 13.6634 58.9854 13.2402C59.7386 12.8086 60.3438 12.1908 60.8008 11.3867C61.2663 10.5827 61.499 9.67708 61.499 8.66992C61.499 7.36654 60.9997 6.21549 60.001 5.2168C59.0107 4.2181 57.8597 3.71875 56.5479 3.71875H46.874V22H45.96V2.80469H56.5479C57.5719 2.80469 58.5368 3.07552 59.4424 3.61719C60.348 4.15885 61.0674 4.88249 61.6006 5.78809C62.1423 6.69368 62.4131 7.6543 62.4131 8.66992C62.4131 9.82096 62.1423 10.8704 61.6006 11.8184C61.0589 12.7578 60.3395 13.4899 59.4424 14.0146C58.5537 14.5309 57.5889 14.7891 56.5479 14.7891H51.2412V13.875ZM51.2412 15.7031H56.5479C57.4535 15.7031 58.321 15.5254 59.1504 15.1699C59.9798 14.806 60.6992 14.3193 61.3086 13.71C61.9264 13.0921 62.4173 12.3473 62.7812 11.4756C63.1452 10.5954 63.3271 9.66016 63.3271 8.66992C63.3271 7.48503 63.0182 6.37207 62.4004 5.33105C61.7826 4.28158 60.9489 3.44792 59.8994 2.83008C58.8584 2.20378 57.7412 1.89062 56.5479 1.89062H45.0459V22H44.1318V0.976562H56.5479C57.902 0.976562 59.1715 1.33203 60.3564 2.04297C61.5413 2.74544 62.485 3.68913 63.1875 4.87402C63.89 6.05892 64.2412 7.32422 64.2412 8.66992C64.2412 9.87174 64.0339 10.9805 63.6191 11.9961C63.2044 13.0033 62.6458 13.8411 61.9434 14.5098C61.2409 15.1784 60.4242 15.6989 59.4932 16.0713C58.5622 16.4352 57.5804 16.6172 56.5479 16.6172H51.2412V15.7031ZM50.5303 22H49.6162V6.46094H56.5479C57.1488 6.46094 57.665 6.68099 58.0967 7.12109C58.5368 7.5612 58.7568 8.07747 58.7568 8.66992C58.7568 10.3118 58.0205 11.1328 56.5479 11.1328H51.2412V10.2188H56.5479C56.9541 10.2188 57.2715 10.1045 57.5 9.87598C57.7285 9.64746 57.8428 9.24544 57.8428 8.66992C57.8428 8.29753 57.7158 7.98861 57.4619 7.74316C57.2165 7.49772 56.9118 7.375 56.5479 7.375H50.5303V22ZM70.8174 22H69.9033V0.976562H70.8174V22ZM68.9893 22H68.0752V0.976562H68.9893V22ZM67.1611 22H66.2471V0.976562H67.1611V22ZM72.6455 17.4297H82.3701V18.3438H72.6455V19.2578H82.3701V20.1719H72.6455V21.0859H82.3701V22H71.7314V0.976562H82.3701V1.89062H72.6455V2.80469H82.3701V3.71875H72.6455V4.63281H82.3701V5.54688H72.6455V9.20312H77.6348V10.1172H72.6455V11.0312H77.6348V11.9453H72.6455V12.8594H77.6348V13.7734H72.6455V17.4297ZM91.5361 11.5391H97.0459C97.8838 11.5391 98.5905 11.2682 99.166 10.7266C99.75 10.1849 100.042 9.41471 100.042 8.41602C100.042 7.67969 99.7373 7.01953 99.1279 6.43555C98.5186 5.8431 97.8245 5.54688 97.0459 5.54688H89.2002V22H88.2861V4.63281H97.0459C98.0785 4.63281 98.9883 5.0179 99.7754 5.78809C100.562 6.5498 100.956 7.42578 100.956 8.41602C100.956 9.63477 100.575 10.6123 99.8135 11.3486C99.0518 12.085 98.1292 12.4531 97.0459 12.4531H91.5361V11.5391ZM91.5361 13.3672H97.0459C98.3662 13.3672 99.5003 12.9059 100.448 11.9834C101.396 11.0524 101.87 9.86328 101.87 8.41602C101.87 7.17188 101.383 6.08008 100.41 5.14062C99.4453 4.19271 98.3239 3.71875 97.0459 3.71875H87.3721V22H86.458V2.80469H97.0459C98.0531 2.80469 98.9967 3.06283 99.877 3.5791C100.766 4.09538 101.472 4.78939 101.997 5.66113C102.522 6.52441 102.784 7.44271 102.784 8.41602C102.784 10.0833 102.217 11.4798 101.083 12.6055C99.9574 13.7227 98.6117 14.2812 97.0459 14.2812H91.5361V13.3672ZM91.5361 15.1953H97.0459C98.2308 15.1953 99.3311 14.9033 100.347 14.3193C101.362 13.7354 102.175 12.9229 102.784 11.8818C103.394 10.8324 103.698 9.67708 103.698 8.41602C103.698 7.27344 103.394 6.2028 102.784 5.2041C102.183 4.19694 101.371 3.3929 100.347 2.79199C99.3226 2.19108 98.2223 1.89062 97.0459 1.89062H85.5439V22H84.6299V0.976562H97.0459C98.3747 0.976562 99.623 1.31934 100.791 2.00488C101.959 2.68197 102.886 3.59603 103.571 4.74707C104.265 5.88965 104.612 7.11263 104.612 8.41602C104.612 9.92253 104.286 11.2471 103.635 12.3896C102.992 13.5322 102.116 14.4251 101.007 15.0684L103.368 22H102.403L100.144 15.5C99.805 15.6354 99.5469 15.7285 99.3691 15.7793L101.489 22H100.524L98.4551 15.9951C98.3789 16.012 98.1081 16.0417 97.6426 16.084L99.6104 22H98.6455L96.7031 16.1094H95.8779L97.7314 22H96.7666L94.9004 16.1094H91.5361V15.1953ZM91.0283 22H90.1143V6.46094H97.0459C97.613 6.46094 98.0996 6.6556 98.5059 7.04492C98.9206 7.42578 99.1279 7.88281 99.1279 8.41602C99.1279 9.88867 98.4339 10.625 97.0459 10.625H91.5361V9.71094H97.0459C97.4098 9.71094 97.6934 9.61784 97.8965 9.43164C98.1081 9.23698 98.2139 8.89844 98.2139 8.41602C98.2139 8.11979 98.0996 7.87435 97.8711 7.67969C97.651 7.47656 97.376 7.375 97.0459 7.375H91.0283V22Z" fill="black"/>
</svg>
