<svg width="98" height="27" viewBox="0 0 98 27" fill="none" xmlns="http://www.w3.org/2000/svg">
<path d="M5.59 25.22C5.24333 25.22 4.68867 25.168 3.926 25.064C3.12867 24.96 2.522 24.908 2.106 24.908C1.60333 24.908 1.118 24.9687 0.65 25.09H0.52C0.346667 25.09 0.216667 25.0467 0.13 24.96C0.0433333 24.8733 0 24.7693 0 24.648C0 24.336 0.216667 24.1107 0.65 23.972C1.08333 23.8333 1.716 23.764 2.548 23.764C3.36267 19.4133 4.27267 15.1407 5.278 10.946L6.5 5.72C7.10667 3.13733 7.462 1.62067 7.566 1.17H5.46C5.13067 1.17 4.966 1.00533 4.966 0.676001C4.966 0.520001 5.044 0.372667 5.2 0.234C5.37333 0.0780001 5.564 0 5.772 0C7.92133 0 9.26467 0.00866691 9.802 0.026H10.92C11.18 0.0953335 11.31 0.234 11.31 0.442C11.31 0.615334 11.2407 0.780001 11.102 0.936001C10.9633 1.07467 10.7987 1.16133 10.608 1.196C10.0013 1.196 9.568 1.196 9.308 1.196C9.06533 1.17867 8.892 1.17 8.788 1.17C6.25733 11.362 4.55 18.902 3.666 23.79C4.74067 23.8247 5.45133 23.9027 5.798 24.024C6.162 24.128 6.344 24.3013 6.344 24.544C6.344 24.6653 6.266 24.804 6.11 24.96C5.954 25.116 5.78067 25.2027 5.59 25.22Z" fill="black"/>
<path d="M18.836 25.428C17.64 25.428 16.5393 25.2287 15.534 24.83C14.546 24.4313 13.7573 23.8507 13.168 23.088C12.596 22.308 12.31 21.3893 12.31 20.332C12.31 18.6853 12.804 17.264 13.792 16.068C14.0867 15.704 14.4073 15.3573 14.754 15.028C15.1007 14.6987 15.378 14.534 15.586 14.534C15.9153 14.534 16.08 14.6813 16.08 14.976C16.08 15.1147 16.0453 15.236 15.976 15.34C15.1093 16.12 14.4853 16.874 14.104 17.602C13.74 18.33 13.558 19.1187 13.558 19.968C13.558 21.424 14.0693 22.5073 15.092 23.218C16.132 23.9287 17.4233 24.284 18.966 24.284C19.954 24.284 20.8207 24.0327 21.566 23.53C22.3287 23.01 22.9093 22.3167 23.308 21.45C23.724 20.5833 23.932 19.6473 23.932 18.642C23.932 17.1167 23.23 14.7333 21.826 11.492C20.422 8.216 19.72 5.93667 19.72 4.654C19.72 3.31933 20.0407 2.21 20.682 1.326C21.3233 0.442 22.242 0 23.438 0C24.3567 0 25.1193 0.234 25.726 0.702001C26.35 1.15267 26.8093 1.67267 27.104 2.262C27.3987 2.834 27.546 3.302 27.546 3.666C27.546 3.83933 27.468 3.99533 27.312 4.134C27.1733 4.25533 27.026 4.316 26.87 4.316C26.61 4.316 26.454 4.16 26.402 3.848C26.2807 3.05067 25.9513 2.392 25.414 1.872C24.8767 1.352 24.218 1.092 23.438 1.092C22.658 1.092 22.0513 1.36933 21.618 1.924C21.1847 2.46133 20.968 3.13733 20.968 3.952C20.968 5.096 21.1413 6.214 21.488 7.306C21.8347 8.38067 22.3633 9.74133 23.074 11.388C23.7673 12.9653 24.2873 14.3087 24.634 15.418C24.998 16.51 25.18 17.628 25.18 18.772C25.18 19.8813 24.9633 20.9473 24.53 21.97C24.0967 22.9753 23.4033 23.8073 22.45 24.466C21.4967 25.1073 20.292 25.428 18.836 25.428Z" fill="black"/>
<path d="M35.748 25.064C33.5987 25.0293 31.952 24.9947 30.808 24.96C29.6813 24.9253 29.0487 24.8993 28.91 24.882C28.7887 24.8473 28.7107 24.7953 28.676 24.726C28.5893 24.622 28.546 24.4747 28.546 24.284C28.546 23.92 28.676 23.556 28.936 23.192C29.3 22.62 29.7247 21.2853 30.21 19.188C30.6953 17.0907 31.2673 14.4127 31.926 11.154C31.978 10.9113 32.186 9.91467 32.55 8.164C33.0007 6.084 33.5293 3.57067 34.136 0.624C34.188 0.450666 34.292 0.303333 34.448 0.181999C34.604 0.0606664 34.7513 0 34.89 0C35.1327 0 35.28 0.147333 35.332 0.441998C34.9507 2.106 34.4047 4.77533 33.694 8.45C33.278 10.634 32.6887 13.4507 31.926 16.9C31.1807 20.3493 30.6693 22.542 30.392 23.478C32.2467 23.79 33.746 23.946 34.89 23.946C36.1727 23.9113 37.1087 23.8767 37.698 23.842C38.2873 23.8073 38.8593 23.7553 39.414 23.686C39.7087 23.686 39.856 23.8333 39.856 24.128C39.856 24.2667 39.7953 24.414 39.674 24.57C39.5527 24.726 39.4053 24.83 39.232 24.882C37.8453 25.0033 36.684 25.064 35.748 25.064Z" fill="black"/>
<path d="M57.548 17.68C57.6693 17.6973 57.938 17.732 58.354 17.784C58.7873 17.836 59.0647 17.914 59.186 18.018C59.3073 18.1047 59.368 18.2347 59.368 18.408C59.368 18.564 59.2813 18.72 59.108 18.876C58.952 19.0147 58.7873 19.0753 58.614 19.058L57.73 18.954C57.7993 19.6647 57.938 20.852 58.146 22.516C58.354 24.1627 58.4753 24.9427 58.51 24.856C58.4927 25.0293 58.4147 25.1767 58.276 25.298C58.1373 25.4193 57.99 25.48 57.834 25.48C57.522 25.48 57.262 25.038 57.054 24.154C56.95 23.6513 56.8373 22.7587 56.716 21.476C56.56 19.968 56.4647 19.0753 56.43 18.798C55.0087 18.6767 53.1887 18.5987 50.97 18.564L49.41 18.538C47.174 21.9007 45.068 24.0413 43.092 24.96C42.4333 25.2893 41.9133 25.454 41.532 25.454C41.0813 25.454 40.856 25.2373 40.856 24.804C40.856 24.596 40.934 24.414 41.09 24.258C41.246 24.0847 41.402 23.998 41.558 23.998C41.714 23.998 41.844 24.0673 41.948 24.206C43.1267 23.738 44.1753 23.062 45.094 22.178C46.0127 21.2767 47.0267 20.0547 48.136 18.512L47.096 18.46C46.2813 18.4253 45.7007 18.382 45.354 18.33C45.0073 18.2607 44.834 18.1133 44.834 17.888C44.834 17.7147 44.9033 17.55 45.042 17.394C45.198 17.238 45.3713 17.1427 45.562 17.108C45.9953 17.1773 47.122 17.2553 48.942 17.342C50.606 14.846 52.322 11.8907 54.09 8.476C55.858 5.044 56.9413 2.42667 57.34 0.624C57.4093 0.450666 57.522 0.303333 57.678 0.182C57.834 0.0606663 57.9813 0 58.12 0C58.2413 0 58.354 0.0953339 58.458 0.286001C58.5793 0.476667 58.64 0.667334 58.64 0.858C58.64 1.03133 58.5967 1.16133 58.51 1.248C58.2327 2.27067 57.9467 4.14267 57.652 6.864C57.3747 9.58533 57.236 11.518 57.236 12.662C57.236 14.0313 57.34 15.704 57.548 17.68ZM56.092 12.948C56.092 10.9893 56.274 8.632 56.638 5.876C55.702 7.83467 54.6187 9.89733 53.388 12.064C52.1573 14.2307 51.1 15.9987 50.216 17.368C52.5907 17.368 54.6187 17.4287 56.3 17.55C56.1613 16.354 56.092 14.82 56.092 12.948ZM58.51 24.778V24.856V24.778Z" fill="black"/>
<path d="M72.692 25.532C72.38 25.532 72.1113 25.2547 71.886 24.7C71.6607 24.1453 71.4353 23.3913 71.21 22.438L70.716 20.566C68.3067 11.3447 66.8247 5.58133 66.27 3.276C65.7847 5.49467 65.386 7.39267 65.074 8.97C63.5313 16.3193 62.37 21.658 61.59 24.986C61.5033 25.3327 61.278 25.506 60.914 25.506C60.55 25.506 60.368 25.35 60.368 25.038C60.368 24.882 60.6627 23.6167 61.252 21.242C61.4947 20.254 62.3267 16.3627 63.748 9.568C64.996 3.51867 65.6547 0.433335 65.724 0.312001C65.776 0.138668 65.906 0.052001 66.114 0.052001C66.3047 0.052001 66.452 0.112667 66.556 0.234C66.66 0.355334 66.7467 0.563335 66.816 0.858002C67.0933 2.19267 67.9427 5.62467 69.364 11.154C70.8027 16.666 71.886 20.696 72.614 23.244C72.9953 21.0947 73.8013 16.8047 75.032 10.374L76.852 0.624002C76.9213 0.450668 77.0427 0.303335 77.216 0.182001C77.4067 0.0606673 77.5887 0 77.762 0C77.8833 0 77.9527 0.0346666 77.97 0.104C78.0047 0.156 78.022 0.242668 78.022 0.364002C78.022 0.485335 78.022 0.572001 78.022 0.624002C77.294 4.212 76.5227 8.19 75.708 12.558C74.8933 16.926 74.226 20.6527 73.706 23.738C73.6713 23.8767 73.6193 24.128 73.55 24.492C73.4807 24.856 73.3767 25.116 73.238 25.272C73.1167 25.4453 72.9347 25.532 72.692 25.532Z" fill="black"/>
<path d="M81.934 26.572C81.5873 26.572 81.414 26.3727 81.414 25.974C81.414 25.8527 81.4313 25.636 81.466 25.324C81.1713 25.2547 80.9287 25.2113 80.738 25.194C80.1487 25.09 79.7153 24.9773 79.438 24.856C79.1607 24.7347 79.022 24.5093 79.022 24.18C79.022 24.0933 79.074 23.998 79.178 23.894C79.2647 23.7727 79.3513 23.712 79.438 23.712C79.6633 23.712 79.9147 23.7813 80.192 23.92C80.4173 24.024 80.6253 24.102 80.816 24.154C81.0067 24.206 81.2753 24.232 81.622 24.232C83.598 14.612 85.4787 7.15 87.264 1.846C86.692 2.03667 86.172 2.25333 85.704 2.496C85.2533 2.72133 84.9933 2.85133 84.924 2.886C84.4733 3.12867 84.2047 3.25 84.118 3.25C83.806 3.25 83.65 3.094 83.65 2.782C83.65 2.53933 83.7627 2.34 83.988 2.184C85.2707 1.38667 86.5273 0.823335 87.758 0.494C87.8967 0.268668 88.0787 0.156001 88.304 0.156001C88.4427 0.156001 88.538 0.199335 88.59 0.286001C89.5087 0.0953339 90.3407 0 91.086 0C93.2527 0 94.9167 0.736667 96.078 2.21C97.2567 3.68333 97.846 5.88467 97.846 8.814C97.846 13.3727 96.884 16.9607 94.96 19.578C93.0533 22.1953 90.5747 23.9373 87.524 24.804C86.1373 25.2027 84.5253 25.402 82.688 25.402C82.6533 25.8007 82.5753 26.0953 82.454 26.286C82.3327 26.4767 82.1593 26.572 81.934 26.572ZM82.896 24.284C85.9813 24.284 88.5467 23.5907 90.592 22.204C92.6547 20.8173 94.1713 18.98 95.142 16.692C96.13 14.404 96.624 11.882 96.624 9.126C96.624 6.43934 96.0953 4.446 95.038 3.146C93.9807 1.82867 92.568 1.17 90.8 1.17C90.124 1.17 89.3527 1.28267 88.486 1.508C87.0647 5.98 85.678 11.3013 84.326 17.472C83.9273 19.24 83.4507 21.5107 82.896 24.284Z" fill="black"/>
</svg>
