<svg width="116" height="22" viewBox="0 0 116 22" fill="none" xmlns="http://www.w3.org/2000/svg">
<path d="M5.48438 0H6.39844V21.0234H5.48438V0ZM3.65625 0H4.57031V21.0234H3.65625V0ZM1.82812 0H2.74219V21.0234H1.82812V0ZM0 0H0.914062V21.0234H0V0Z" fill="black"/>
<path d="M17.8415 8.408H16.4285C15.829 8.408 15.3969 8.25619 15.1322 7.95257C14.8675 7.64116 14.7352 7.23244 14.7352 6.7264C14.7352 5.60533 15.5721 5.0448 17.2459 5.0448C18.8185 5.0448 20.0019 5.27836 20.7959 5.74547L20.1186 6.25929C19.5737 6.01016 18.6161 5.8856 17.2459 5.8856C16.5764 5.8856 16.1248 5.95956 15.8913 6.10748C15.6655 6.2554 15.5526 6.4617 15.5526 6.7264C15.5526 6.9911 15.6149 7.1974 15.7395 7.34532C15.864 7.49324 16.0937 7.5672 16.4285 7.5672H17.8765C18.9275 7.5672 19.8734 7.74626 20.7142 8.10438C21.5628 8.4625 22.2596 8.95296 22.8045 9.57578C23.3495 10.1908 23.766 10.9032 24.054 11.7128C24.3421 12.5147 24.4861 13.3749 24.4861 14.2936C24.4861 15.041 24.381 15.7494 24.1708 16.419C23.9606 17.0885 23.6414 17.7035 23.2132 18.264C22.7928 18.8246 22.2829 19.3112 21.6835 19.7238C21.0918 20.1286 20.3833 20.4439 19.5581 20.6697C18.7407 20.9032 17.8531 21.02 16.8956 21.02C15.393 21.02 13.9839 20.7903 12.6682 20.331C11.3603 19.8795 10.2704 19.245 9.39844 18.4275L10.0757 17.9254C10.8698 18.6416 11.8624 19.1983 13.0536 19.5953C14.2525 19.9846 15.5332 20.1792 16.8956 20.1792C17.9621 20.1792 18.9236 20.0274 19.78 19.7238C20.6441 19.4124 21.3526 18.9881 21.9053 18.4509C22.4659 17.9137 22.8941 17.2909 23.1899 16.5824C23.4935 15.874 23.6453 15.111 23.6453 14.2936C23.6453 13.2115 23.4273 12.2344 22.9914 11.3625C22.5554 10.4828 21.8898 9.77041 20.9945 9.22544C20.107 8.68048 19.056 8.408 17.8415 8.408ZM16.4285 9.2488H17.7597C19.3401 9.2488 20.5741 9.73148 21.4616 10.6968C22.3569 11.6622 22.8045 12.8611 22.8045 14.2936C22.8045 15.7494 22.2868 16.9561 21.2514 17.9137C20.216 18.8635 18.764 19.3384 16.8956 19.3384C15.6499 19.3384 14.4861 19.1671 13.4039 18.8246C12.3218 18.482 11.4226 17.9993 10.7063 17.3765L11.3603 16.851C11.9987 17.3726 12.8006 17.7775 13.7659 18.0655C14.7391 18.3536 15.7823 18.4976 16.8956 18.4976C18.5382 18.4976 19.7917 18.1044 20.6558 17.3181C21.5278 16.5318 21.9637 15.5237 21.9637 14.2936C21.9637 13.0791 21.5978 12.0748 20.866 11.2807C20.142 10.4866 19.1027 10.0896 17.748 10.0896H16.4285C15.2918 10.0896 14.4393 9.77819 13.871 9.15538C13.3027 8.53256 13.0185 7.7229 13.0185 6.7264C13.0185 5.7299 13.3689 4.92024 14.0695 4.29742C14.778 3.67461 15.8368 3.3632 17.2459 3.3632C18.2346 3.3632 19.1533 3.47998 20.0019 3.71353C20.8504 3.9393 21.5511 4.26628 22.1039 4.69447L21.4382 5.20829C20.4651 4.53876 19.0676 4.204 17.2459 4.204C16.0703 4.204 15.2101 4.43756 14.6651 4.90467C14.1279 5.36399 13.8593 5.97124 13.8593 6.7264C13.8593 7.48935 14.0579 8.10049 14.4549 8.55981C14.8597 9.01914 15.5176 9.2488 16.4285 9.2488ZM16.4285 10.9304H17.713C18.8497 10.9304 19.7021 11.2457 20.2704 11.8763C20.8388 12.5069 21.1229 13.3127 21.1229 14.2936C21.1229 15.2901 20.7687 16.0998 20.0602 16.7226C19.3596 17.3454 18.3047 17.6568 16.8956 17.6568C15.9069 17.6568 14.9843 17.5439 14.1279 17.3181C13.2794 17.0846 12.5787 16.7537 12.0259 16.3255L12.6916 15.8117C13.6647 16.4812 15.0661 16.816 16.8956 16.816C18.0711 16.816 18.9275 16.5863 19.4647 16.127C20.0096 15.6599 20.2821 15.0488 20.2821 14.2936C20.2821 13.5384 20.0797 12.9312 19.6749 12.4719C19.2701 12.0048 18.6122 11.7712 17.7013 11.7712H16.4285C14.8325 11.7712 13.583 11.2963 12.6799 10.3465C11.7846 9.38893 11.3369 8.18223 11.3369 6.7264C11.3369 5.27057 11.8547 4.06776 12.8901 3.11797C13.9255 2.16039 15.3775 1.6816 17.2459 1.6816C18.4915 1.6816 19.6515 1.85287 20.7259 2.19542C21.808 2.53797 22.7072 3.02065 23.4234 3.64347L22.7695 4.16897C22.1311 3.64736 21.3292 3.24253 20.3639 2.95448C19.3985 2.66643 18.3592 2.5224 17.2459 2.5224C15.6032 2.5224 14.3459 2.91555 13.474 3.70186C12.6098 4.48816 12.1777 5.49634 12.1777 6.7264C12.1777 7.94867 12.5437 8.95686 13.2755 9.75094C14.0073 10.5372 15.0583 10.9304 16.4285 10.9304ZM16.4285 12.612H17.713C18.3125 12.612 18.7446 12.7677 19.0092 13.0791C19.2739 13.3905 19.4063 13.7953 19.4063 14.2936C19.4063 15.4147 18.5694 15.9752 16.8956 15.9752C15.3152 15.9752 14.1279 15.7416 13.3338 15.2745L14.0112 14.7607C14.5561 15.0098 15.5176 15.1344 16.8956 15.1344C17.5651 15.1344 18.0127 15.0604 18.2385 14.9125C18.4721 14.7646 18.5888 14.5583 18.5888 14.2936C18.5888 14.0367 18.5227 13.8343 18.3903 13.6864C18.2658 13.5307 18.0322 13.4528 17.6897 13.4528H16.4285C15.3541 13.4528 14.381 13.2776 13.509 12.9273C12.6449 12.577 11.9325 12.0943 11.372 11.4793C10.8192 10.8642 10.3949 10.1519 10.0991 9.34222C9.80327 8.53256 9.65535 7.66062 9.65535 6.7264C9.65535 5.97902 9.76045 5.27057 9.97065 4.60104C10.1808 3.93152 10.4961 3.31649 10.9165 2.75596C11.3447 2.19542 11.8547 1.71274 12.4463 1.30791C13.0458 0.895296 13.7542 0.576104 14.5717 0.350333C15.3969 0.116778 16.2883 0 17.2459 0C18.7484 0 20.1537 0.229663 21.4616 0.688989C22.7695 1.14053 23.8594 1.77502 24.7314 2.59247L24.054 3.09461C23.26 2.37837 22.2673 1.82563 21.0762 1.43637C19.8851 1.03932 18.6083 0.8408 17.2459 0.8408C16.1793 0.8408 15.214 0.996504 14.3498 1.30791C13.4934 1.61153 12.785 2.03193 12.2245 2.56911C11.6717 3.10629 11.2435 3.7291 10.9399 4.43756C10.6441 5.14601 10.4961 5.90896 10.4961 6.7264C10.4961 7.82411 10.718 8.81283 11.1618 9.69256C11.6055 10.5723 12.2828 11.2807 13.1937 11.8179C14.1046 12.3473 15.1828 12.612 16.4285 12.612Z" fill="black"/>
<path d="M27.7314 0H28.6454V21.0234H27.7314V0ZM33.2157 0H34.1298V16.4531H41.4423V17.3672H34.1298V18.2812H41.4423V19.1953H34.1298V20.1094H41.4423V21.0234H33.2157V0ZM31.3876 0H32.3017V21.0234H31.3876V0ZM29.5595 0H30.4735V21.0234H29.5595V0Z" fill="black"/>
<path d="M54.2812 14.8535L54.6493 13.9395H57.7724L58.1405 14.8535H54.2812ZM53.5702 16.6816L53.9257 15.7676H58.4833L58.8769 16.6816H53.5702ZM52.8593 18.5098L53.2148 17.5957H59.2069L59.5878 18.5098H52.8593ZM45.4325 21.0234H44.4423L52.7577 0H53.748L62.0507 21.0234H61.0732L53.2528 1.23145L45.4325 21.0234ZM53.3671 3.40234L53.8876 4.57031L47.3876 21.0234H46.4101L53.3671 3.40234ZM54.3827 5.81445L54.8651 7.07129L49.3681 21.0234H48.3778L54.3827 5.81445ZM55.3476 8.32812L55.83 9.61035L51.3232 21.0234H50.3456L55.3476 8.32812ZM67.954 21.0234H66.9638L58.661 0H59.6386L67.954 21.0234ZM57.6708 0L65.9862 21.0234H65.0087L56.6933 0H57.6708ZM55.703 0L64.0185 21.0234H63.0282L54.7255 0H55.703Z" fill="black"/>
<path d="M85.8837 10.9053L84.9696 9.39453V0H85.8837V10.9053ZM87.7118 13.9014L86.7978 12.3652V0H87.7118V13.9014ZM89.5399 16.9355L88.6259 15.3867V0H89.5399V16.9355ZM76.4384 10.1182L77.3524 11.6289V21.0234H76.4384V10.1182ZM74.6103 7.12207L75.5243 8.6582V21.0234H74.6103V7.12207ZM72.7821 4.08789L73.6962 5.63672V21.0234H72.7821V4.08789ZM73.0995 0H74.1659L87.0898 21.0234H86.0233L73.0995 0ZM75.2577 0H76.3368L89.248 21.0234H88.1562L75.2577 0ZM77.4032 0H78.4696L90.454 19.5381V0H91.3681V21.0234C91.3681 21.0234 91.0084 21.0234 90.289 21.0234L77.4032 0ZM71.8681 1.48535V21.0234H70.954V0C70.954 0 71.3179 0 72.0458 0L84.9315 21.0234H83.8778L71.8681 1.48535Z" fill="black"/>
<path d="M99.8525 15.5391V5.48438C99.8525 5.48438 101.93 5.48438 106.086 5.48438C107.093 5.48438 107.956 5.97949 108.676 6.96973C109.404 7.9515 109.767 9.13216 109.767 10.5117C109.767 11.8997 109.404 13.0846 108.676 14.0664C107.956 15.0482 107.093 15.5391 106.086 15.5391H99.8525ZM100.767 14.625H106.086C106.839 14.625 107.482 14.223 108.016 13.4189C108.557 12.6149 108.828 11.6458 108.828 10.5117C108.828 9.36914 108.557 8.40007 108.016 7.60449C107.482 6.80046 106.839 6.39844 106.086 6.39844H100.767V14.625ZM98.9384 16.4531H106.086C107.347 16.4531 108.43 15.8734 109.336 14.7139C110.25 13.5459 110.707 12.1452 110.707 10.5117C110.707 9.43685 110.495 8.44238 110.072 7.52832C109.657 6.61426 109.095 5.89486 108.384 5.37012C107.681 4.83691 106.915 4.57031 106.086 4.57031H98.9384V16.4531ZM98.0243 17.3672V3.65625H106.086C107.076 3.65625 107.999 3.96094 108.853 4.57031C109.708 5.17969 110.385 6.01335 110.885 7.07129C111.392 8.12077 111.646 9.26758 111.646 10.5117C111.646 11.7474 111.392 12.8942 110.885 13.9521C110.385 15.0101 109.708 15.8438 108.853 16.4531C107.999 17.0625 107.076 17.3672 106.086 17.3672H98.0243ZM97.1103 18.2812H106.086C107.245 18.2812 108.32 17.9342 109.31 17.2402C110.309 16.5462 111.105 15.6025 111.697 14.4092C112.29 13.2158 112.586 11.9167 112.586 10.5117C112.586 9.11523 112.29 7.82031 111.697 6.62695C111.105 5.42513 110.309 4.47721 109.31 3.7832C108.312 3.08919 107.237 2.74219 106.086 2.74219H97.1103V18.2812ZM96.1962 19.1953V1.82812H106.086C107.406 1.82812 108.638 2.21745 109.78 2.99609C110.923 3.76628 111.833 4.81999 112.51 6.15723C113.187 7.49447 113.525 8.94596 113.525 10.5117C113.525 12.0775 113.187 13.529 112.51 14.8662C111.833 16.2035 110.923 17.2614 109.78 18.04C108.638 18.8102 107.406 19.1953 106.086 19.1953H96.1962ZM95.2821 20.1094H106.086C107.195 20.1094 108.265 19.8555 109.298 19.3477C110.33 18.8398 111.223 18.1585 111.976 17.3037C112.73 16.4489 113.331 15.429 113.779 14.2441C114.236 13.0508 114.465 11.8066 114.465 10.5117C114.465 9.2168 114.236 7.97689 113.779 6.79199C113.331 5.6071 112.73 4.58724 111.976 3.73242C111.223 2.86914 110.33 2.18359 109.298 1.67578C108.265 1.16797 107.195 0.914062 106.086 0.914062H95.2821V20.1094ZM106.086 21.0234H94.3681V0H106.086C107.736 0 109.277 0.469727 110.707 1.40918C112.137 2.34863 113.276 3.62663 114.122 5.24316C114.977 6.8597 115.404 8.61589 115.404 10.5117C115.404 11.9336 115.15 13.2962 114.642 14.5996C114.143 15.8945 113.475 17.0117 112.637 17.9512C111.799 18.8906 110.804 19.6396 109.653 20.1982C108.511 20.7484 107.322 21.0234 106.086 21.0234Z" fill="black"/>
</svg>
