<svg id="Ebene_1" data-name="Ebene 1" xmlns="http://www.w3.org/2000/svg" viewBox="0 0 443.17 109.18"><defs><style>.cls-1{fill:#fff;}</style></defs><title>nintendo_white_logo</title><polygon class="cls-1" points="43.97 28.8 59.98 28.8 82.13 64.64 82.12 28.8 98 28.8 98 80.2 82.14 80.2 59.87 44.36 59.87 80.2 43.96 80.2 43.97 28.8 43.97 28.8"/><polygon class="cls-1" points="184.39 34.09 199.86 34.09 199.86 41 208.23 41 208.23 46.09 199.86 46.09 199.87 80.2 184.39 80.2 184.4 46.09 176 46.09 176 41.01 184.4 41.01 184.39 34.09 184.39 34.09"/><polygon class="cls-1" points="106.85 46.02 122.31 46.02 122.31 80.2 106.85 80.2 106.85 46.02 106.85 46.02"/><polygon class="cls-1" points="106.82 28.79 122.31 28.79 122.31 39.3 106.82 39.3 106.82 28.79 106.82 28.79"/><path class="cls-1" d="M402.86,78.51s0,5.17,0,7.24c0,5.45-3.22,7.7-6.32,7.7s-6.33-2.25-6.33-7.7c0-2.07,0-7.37,0-7.37s0-5.06,0-7.13c0-5.42,3.24-7.66,6.32-7.66s6.32,2.23,6.32,7.66c0,2.07,0,5.9,0,7.28v0Zm-6.2-19.15c-12.47,0-22.59,8.59-22.59,19.19s10.11,19.19,22.59,19.19,22.59-8.59,22.59-19.19-10.11-19.19-22.59-19.19Z" transform="translate(-18.95 -15.68)"/><path class="cls-1" d="M353.78,44.48H369V95.87H353.75s0-1.66,0-2A18.58,18.58,0,0,1,336,95.18a18.24,18.24,0,0,1-10.57-16.94c0-9,8.51-18.87,19.65-17.89a20.58,20.58,0,0,1,8.74,3.05V44.48Zm.11,34.13s0-4.29,0-6.11c0-5.29-3.65-6.63-6.05-6.63s-6.06,1.35-6.06,6.63c0,1.75,0,6.09,0,6.09s0,4.26,0,6.08c0,5.28,3.6,6.66,6.06,6.66s6.06-1.38,6.06-6.66c0-2.2,0-6.07,0-6.07Z" transform="translate(-18.95 -15.68)"/><path class="cls-1" d="M177.45,60.12c5.78-.16,17.5,3.62,17.42,17.15,0,2.4,0,18.59,0,18.59H179.5V73.42c0-3-2.85-6.29-7.06-6.29s-7.34,3.31-7.34,6.29c0,1.46,0,22.45,0,22.45H149.78V61.69h15.35s0,2.75,0,3.59a18.61,18.61,0,0,1,12.32-5.16Z" transform="translate(-18.95 -15.68)"/><path class="cls-1" d="M303,60.12c5.78-.16,17.5,3.62,17.42,17.15,0,2.4,0,18.59,0,18.59H305.11V73.42c0-3-2.85-6.29-7.06-6.29s-7.34,3.31-7.34,6.29c0,1.46,0,22.45,0,22.45H275.38V61.69h15.33s0,2.75,0,3.59A18.61,18.61,0,0,1,303,60.12Z" transform="translate(-18.95 -15.68)"/><path class="cls-1" d="M241.58,73.61c0-3,0-5,1-6.71A6.32,6.32,0,0,1,248,63.79h0a6.32,6.32,0,0,1,5.44,3.12c1,1.71,1,3.71,1,6.71Zm12.84,10.31s0,.15,0,2.07c0,6.25-4.11,7.64-6.4,7.64s-6.47-1.39-6.47-7.64c0-1.87,0-7.05,0-7.05s29.12,0,29.12,0c0-10.6-10.24-19.38-22.8-19.38s-22.76,8.59-22.76,19.19,10.19,19.19,22.76,19.19c10.43,0,19.24-5.95,21.93-14Z" transform="translate(-18.95 -15.68)"/><path class="cls-1" d="M421.65,48.3c2.5,0,3.74.85,3.74,2.52a2.34,2.34,0,0,1-1.91,2.33l2,3.91h-2.37l-1.67-3.59h-1v3.59h-2.13V48.3Zm-.2-3.42a7.91,7.91,0,1,0,7.91,7.91,7.91,7.91,0,0,0-7.91-7.91Zm6.4,7.91a6.4,6.4,0,1,1-6.4-6.4,6.4,6.4,0,0,1,6.4,6.4Zm-7.51-.6h1c1.22,0,1.8-.37,1.8-1.24s-.63-1.31-1.91-1.31h-.93V52.2Z" transform="translate(-18.95 -15.68)"/><path class="cls-1" d="M76.92,124.86c-34.75,0-58-24.63-58-54.49S42.22,15.6,76.87,15.68H404.22c34.64-.08,57.91,24.83,57.91,54.69s-23.22,54.48-58,54.49ZM77,29.11c-27.51.05-44.39,18.44-44.39,41.18S49.41,111.57,77,111.47h327c27.62.1,44.4-18.44,44.4-41.18s-16.88-41.13-44.39-41.18Z" transform="translate(-18.95 -15.68)"/></svg>