<?xml version="1.0" encoding="utf-8"?>
<!-- Generator: Adobe Illustrator 26.0.0, SVG Export Plug-In . SVG Version: 6.00 Build 0)  -->
<svg version="1.1" id="Layer_1" xmlns="http://www.w3.org/2000/svg" xmlns:xlink="http://www.w3.org/1999/xlink" x="0px" y="0px"
	 viewBox="0 0 512 640" style="enable-background:new 0 0 512 640;" xml:space="preserve">
<style type="text/css">
	.st0{fill-rule:evenodd;clip-rule:evenodd;fill:#FFFFFF;}
</style>
<path class="st0" d="M64,192c0-70.7,57.3-128,128-128s128,57.3,128,128s-57.3,128-128,128S64,262.7,64,192z M192,32
	c-88.4,0-160,71.6-160,160s71.6,160,160,160c38.4,0,73.7-13.5,101.3-36.1l159.4,159.4c6.2,6.2,16.4,6.2,22.6,0
	c6.2-6.2,6.2-16.4,0-22.6L315.9,293.3C338.5,265.7,352,230.4,352,192C352,103.6,280.4,32,192,32z"/>
</svg>
